<svg id="Capa_1" data-name="Capa 1" xmlns="http://www.w3.org/2000/svg" viewBox="0 0 977.88 999.21"><defs><style>.cls-1{fill:#fff;}.cls-2{fill:#e40f79;}</style></defs><title>logo</title><path class="cls-1" d="M108,878.37q-2.3,10.41-3.87,21.47c-1,7.39-1.93,14.68-2.65,21.86,1.71.07,3.39.13,5,.15L111,922c1.4,0,2.69,0,3.83,0h2.87a44.37,44.37,0,0,0,8.16-.61c.18.63.33,1.2.44,1.7a6.73,6.73,0,0,1,.15,1.42,3,3,0,0,1-2,3.13,18.55,18.55,0,0,1-5.76.7c-2.4,0-5.09-.15-8.07-.43s-6.24-.57-9.78-.84c-.4,3.92-.72,7.73-1,11.43s-.48,7.18-.66,10.46-.28,6.34-.35,9.15-.1,5.25-.1,7.33a81.33,81.33,0,0,0,.59,10.43,26.1,26.1,0,0,0,2.14,7.82,11.61,11.61,0,0,0,4.2,4.88,12.57,12.57,0,0,0,6.79,1.7,24,24,0,0,0,6.6-1,48.63,48.63,0,0,0,8.28-3.32,5.7,5.7,0,0,1,1.7,3.61c-2.25,1.49-4.55,2.84-6.82,4.07a71.25,71.25,0,0,1-6.79,3.15,45.74,45.74,0,0,1-6.48,2,27,27,0,0,1-5.9.7,16.36,16.36,0,0,1-6.7-1.33,12.52,12.52,0,0,1-5.25-4.77,27.4,27.4,0,0,1-3.44-9.21,71.78,71.78,0,0,1-1.25-14.67c0-3.32.07-6.74.18-10.26s.26-7.07.44-10.7.41-7.22.7-10.81.63-7.18,1-10.68c-2.88,0-5.55.15-8,.35a40.78,40.78,0,0,0-6.32,1,2,2,0,0,1-.15-.76,2.94,2.94,0,0,1,1.11-2.17,11.28,11.28,0,0,1,3.13-1.84,28.29,28.29,0,0,1,4.79-1.35,45.93,45.93,0,0,1,6.13-.77q1.24-11.41,2.67-21.6t2.85-18.16a5.25,5.25,0,0,1,1-2.36,6.1,6.1,0,0,1,1.73-1.49,7.24,7.24,0,0,1,2.12-.75,13.06,13.06,0,0,1,5.52.16A11.65,11.65,0,0,1,108,878.37Z" transform="translate(-11.06 -0.4)"/><path class="cls-1" d="M132.48,965.18a54.71,54.71,0,0,1,1.16-11.2A56.88,56.88,0,0,1,137,943a52.7,52.7,0,0,1,5.56-10,40.79,40.79,0,0,1,7.63-8.19,35,35,0,0,1,9.63-5.53,32.35,32.35,0,0,1,11.54-2,25.35,25.35,0,0,1,12.4,3,28.17,28.17,0,0,1,9,7.79,34.92,34.92,0,0,1,5.56,11,42.55,42.55,0,0,1,1.88,12.62,56.24,56.24,0,0,1-1.14,11.23,57,57,0,0,1-3.41,11,53.41,53.41,0,0,1-5.58,10,40.49,40.49,0,0,1-7.64,8.18,34.32,34.32,0,0,1-9.63,5.52,31.94,31.94,0,0,1-11.55,2,25.36,25.36,0,0,1-12.39-3,28.07,28.07,0,0,1-9-7.79,35.85,35.85,0,0,1-5.54-11A43.31,43.31,0,0,1,132.48,965.18ZM145.54,960a50,50,0,0,0,.59,7.54,41.83,41.83,0,0,0,1.78,7.4,38.3,38.3,0,0,0,3,6.63,23.48,23.48,0,0,0,4.23,5.41,18.58,18.58,0,0,0,5.47,3.59,16.67,16.67,0,0,0,6.69,1.31,14.05,14.05,0,0,0,7-1.71,17.62,17.62,0,0,0,5.25-4.57,26.36,26.36,0,0,0,3.68-6.5,54.17,54.17,0,0,0,2.32-7.59,61,61,0,0,0,1.22-7.73c.24-2.56.35-4.92.35-7.07a48.51,48.51,0,0,0-.57-7.57,40,40,0,0,0-1.77-7.33,37.59,37.59,0,0,0-3-6.63,22.74,22.74,0,0,0-4.22-5.36,18.92,18.92,0,0,0-5.47-3.59,16.55,16.55,0,0,0-6.7-1.31,14.09,14.09,0,0,0-7,1.7,17,17,0,0,0-5.25,4.55,25.36,25.36,0,0,0-3.68,6.5,53.54,53.54,0,0,0-2.32,7.55,59.67,59.67,0,0,0-1.22,7.75Q145.54,956.81,145.54,960Z" transform="translate(-11.06 -0.4)"/><path class="cls-1" d="M290.87,849.81q-2,13.89-3.79,28.45c-1.18,9.7-2.25,19.37-3.15,29s-1.66,19.1-2.19,28.44-.83,18.3-.83,26.86c0,4.13,0,7.65.13,10.63s.24,5.45.44,7.48a27.31,27.31,0,0,0,.83,4.86,7.77,7.77,0,0,0,1.32,2.8,3.51,3.51,0,0,0,1.83,1.29,8.88,8.88,0,0,0,2.46.29,22.44,22.44,0,0,0,5.66-.79,38,38,0,0,0,6.15-2.21l1,2.85a34.51,34.51,0,0,1-5,3.21,67,67,0,0,1-6.26,3,51.23,51.23,0,0,1-6.44,2.21,21.26,21.26,0,0,1-5.45.86,9.57,9.57,0,0,1-2.93-.4,4.67,4.67,0,0,1-2.16-1.33,7.71,7.71,0,0,1-1.54-2.54,20.57,20.57,0,0,1-1-4c-.3-2.19-.59-4.75-.78-7.66s-.31-6.08-.31-9.52c0-3.65.15-7.35.42-11.14s.72-7.52,1.33-11.29l-.48-.11A153.37,153.37,0,0,1,261,971.09a98.32,98.32,0,0,1-10.2,15.32,47,47,0,0,1-10.57,9.78,18.75,18.75,0,0,1-10.15,3.41,14.42,14.42,0,0,1-8.49-2.49,19.42,19.42,0,0,1-5.82-6.57,32.43,32.43,0,0,1-3.37-9.34,54,54,0,0,1-1.1-10.85A60.91,60.91,0,0,1,217,944.68a57.85,57.85,0,0,1,6.65-10.86,45.43,45.43,0,0,1,8.69-8.62,40.78,40.78,0,0,1,10.43-5.67,34.49,34.49,0,0,1,11.8-2,35.2,35.2,0,0,1,8.6,1.09,33.14,33.14,0,0,1,8.56,3.63c.19-6.21.41-12.51.7-18.9s.59-12.63,1-18.69.74-11.78,1.18-17.18.92-10.22,1.44-14.44a4.47,4.47,0,0,1,.88-2.28,5.33,5.33,0,0,1,1.79-1.53,10,10,0,0,1,2.46-.85,14.52,14.52,0,0,1,2.8-.27A15.93,15.93,0,0,1,290.87,849.81Zm-19.63,77.08a34.37,34.37,0,0,0-14.66-3.51,27.08,27.08,0,0,0-9.78,1.71,27.6,27.6,0,0,0-8,4.68,33.35,33.35,0,0,0-6.24,7,42.13,42.13,0,0,0-4.42,8.64,54.17,54.17,0,0,0-2.67,9.61,56.23,56.23,0,0,0-.9,9.89c0,1.16.07,2.52.16,4a45.77,45.77,0,0,0,.63,4.7,34.92,34.92,0,0,0,1.25,4.75,19.7,19.7,0,0,0,1.9,4.2,10.16,10.16,0,0,0,2.76,3,6.53,6.53,0,0,0,3.81,1.11,13.7,13.7,0,0,0,8-3,40.65,40.65,0,0,0,8-7.84,77.1,77.1,0,0,0,7.37-11.16,121.79,121.79,0,0,0,6.2-12.93,109,109,0,0,0,4.42-13.13A63.75,63.75,0,0,0,271.24,926.89Z" transform="translate(-11.06 -0.4)"/><path class="cls-1" d="M305.75,965.18a54.71,54.71,0,0,1,1.16-11.2,56.88,56.88,0,0,1,3.37-11,52.7,52.7,0,0,1,5.56-10,40.55,40.55,0,0,1,7.64-8.19,34.79,34.79,0,0,1,9.62-5.53,32.35,32.35,0,0,1,11.54-2,25.32,25.32,0,0,1,12.4,3,28.17,28.17,0,0,1,9,7.79,34.92,34.92,0,0,1,5.56,11,42.55,42.55,0,0,1,1.88,12.62,56.24,56.24,0,0,1-1.14,11.23,57,57,0,0,1-3.41,11,53.41,53.41,0,0,1-5.58,10,40.49,40.49,0,0,1-7.64,8.18,34.32,34.32,0,0,1-9.63,5.52,31.94,31.94,0,0,1-11.55,2,25.36,25.36,0,0,1-12.39-3,28.17,28.17,0,0,1-9-7.79,35.85,35.85,0,0,1-5.54-11A43.31,43.31,0,0,1,305.75,965.18ZM318.81,960a48.77,48.77,0,0,0,.6,7.54,41,41,0,0,0,1.77,7.4,38.3,38.3,0,0,0,3,6.63,23.75,23.75,0,0,0,4.23,5.41,18.58,18.58,0,0,0,5.47,3.59,16.67,16.67,0,0,0,6.69,1.31,14,14,0,0,0,7-1.71,17.62,17.62,0,0,0,5.25-4.57,26.36,26.36,0,0,0,3.68-6.5,52.87,52.87,0,0,0,2.32-7.59,61,61,0,0,0,1.22-7.73c.24-2.56.35-4.92.35-7.07a48.51,48.51,0,0,0-.57-7.57,40,40,0,0,0-1.77-7.33,37.59,37.59,0,0,0-3-6.63,22.74,22.74,0,0,0-4.22-5.36,18.78,18.78,0,0,0-5.47-3.59,16.52,16.52,0,0,0-6.7-1.31,14.09,14.09,0,0,0-7,1.7,17,17,0,0,0-5.25,4.55,25.36,25.36,0,0,0-3.68,6.5,53.54,53.54,0,0,0-2.32,7.55,59.67,59.67,0,0,0-1.22,7.75C319,955.53,318.81,957.87,318.81,960Z" transform="translate(-11.06 -0.4)"/><path class="cls-1" d="M480.42,979.69c.22.11.51.26.86.46a6.77,6.77,0,0,1,1,.66,6.06,6.06,0,0,1,.76.76,1.35,1.35,0,0,1,.33.81.92.92,0,0,1-.15.44,46.32,46.32,0,0,1-6.61,7.4,39.64,39.64,0,0,1-7.33,5.25,33.19,33.19,0,0,1-7.73,3.13,31,31,0,0,1-7.79,1,26.82,26.82,0,0,1-12-2.69,28.79,28.79,0,0,1-9.41-7.31,34.64,34.64,0,0,1-6.15-10.92,40.21,40.21,0,0,1-2.21-13.43,55.63,55.63,0,0,1,5-22.87,50.39,50.39,0,0,1,5.93-9.87,41.9,41.9,0,0,1,8-7.94,36.68,36.68,0,0,1,9.78-5.28,33.87,33.87,0,0,1,11.47-1.9,26.58,26.58,0,0,1,7.72,1.09,20.7,20.7,0,0,1,6.41,3.13,15.69,15.69,0,0,1,4.4,5.06,14.14,14.14,0,0,1,1.66,6.85,14.29,14.29,0,0,1-3.65,9.73,28.57,28.57,0,0,1-10.05,7A69.41,69.41,0,0,1,455.52,955a165.12,165.12,0,0,1-18.73,2.67v.92a43.77,43.77,0,0,0,1.77,12.8,32,32,0,0,0,4.88,9.94,22.89,22.89,0,0,0,7.35,6.41,18.62,18.62,0,0,0,9.06,2.32A23.8,23.8,0,0,0,470,987.59,36.54,36.54,0,0,0,480.42,979.69Zm-10.28-43.92a13.18,13.18,0,0,0-.83-4.73,11.76,11.76,0,0,0-2.37-3.78,11.08,11.08,0,0,0-3.59-2.56,10.73,10.73,0,0,0-4.46-.92,15.81,15.81,0,0,0-6.48,1.27,17.84,17.84,0,0,0-5.18,3.41,23.64,23.64,0,0,0-4.05,5,36.57,36.57,0,0,0-3,6.09,49.19,49.19,0,0,0-2,6.63,55.19,55.19,0,0,0-1.1,6.63,99.64,99.64,0,0,0,13.94-1.9,45.89,45.89,0,0,0,10.4-3.44,18.08,18.08,0,0,0,6.47-5A10.78,10.78,0,0,0,470.14,935.77Z" transform="translate(-11.06 -0.4)"/><path class="cls-1" d="M520.75,849.81q-1.08,9.3-2.16,19.06t-2,19.76c-.63,6.66-1.24,13.33-1.77,20s-1,13.33-1.44,19.83-.7,12.91-.92,19.16-.33,12.3-.33,18.08c0,3.59,0,6.7.13,9.28s.24,4.79.44,6.56a22.32,22.32,0,0,0,.83,4.34,7,7,0,0,0,1.29,2.51,3.53,3.53,0,0,0,1.79,1.18,9,9,0,0,0,2.46.29,22.31,22.31,0,0,0,5.66-.79,36.39,36.39,0,0,0,6.15-2.21l1,2.85A34.2,34.2,0,0,1,527,993a64.7,64.7,0,0,1-6.26,3,51.1,51.1,0,0,1-6.43,2.21,21.39,21.39,0,0,1-5.45.86,6.94,6.94,0,0,1-4.69-1.51,9.86,9.86,0,0,1-2.62-4.88,43.09,43.09,0,0,1-1.14-8.84c-.18-3.64-.24-8.06-.24-13.27,0-1.9,0-4.61.15-8.14s.26-7.61.46-12.27.44-9.78.7-15.32.53-11.27.81-17.2.59-11.91.94-18,.66-11.88,1-17.5.65-11,.94-15.95.57-9.41.81-13.24a4,4,0,0,1,.78-2.28,5.25,5.25,0,0,1,1.82-1.53,10.37,10.37,0,0,1,2.52-.85,15,15,0,0,1,2.82-.27A15.86,15.86,0,0,1,520.75,849.81Z" transform="translate(-11.06 -0.4)"/><path class="cls-1" d="M622.25,940.41a17.7,17.7,0,0,0-1.45-7.48,14.79,14.79,0,0,0-3.72-5.21,15,15,0,0,0-5.18-3,17.87,17.87,0,0,0-5.8-1,23.06,23.06,0,0,0-6.57.81,11.91,11.91,0,0,0-4.35,2.26,8.15,8.15,0,0,0-2.41,3.35,11.92,11.92,0,0,0-.72,4.18,15.47,15.47,0,0,0,.94,5.29,19.94,19.94,0,0,0,2.82,5.17l-.22.61a14.32,14.32,0,0,1-6.3,1.53,10.14,10.14,0,0,1-3.46-.59,8,8,0,0,1-2.8-1.66,7.75,7.75,0,0,1-1.86-2.69,8.81,8.81,0,0,1-.68-3.55,12.62,12.62,0,0,1,1.56-6.08,21,21,0,0,1,4.13-5.19,30,30,0,0,1,6-4.22,48.89,48.89,0,0,1,14.26-5.1,36.46,36.46,0,0,1,6.74-.68A27.73,27.73,0,0,1,623,918.7a16.2,16.2,0,0,1,6.63,4.44,18.41,18.41,0,0,1,3.72,7.09,34.41,34.41,0,0,1,1.18,9.41c0,2.41-.11,5.06-.3,8s-.44,5.88-.71,9-.48,6.41-.67,9.78-.29,6.67-.29,10c0,5.25,1,9.19,2.91,11.84a9.15,9.15,0,0,0,7.68,4q4.25,0,9.41-3.13l1.6,2.34a26.6,26.6,0,0,1-8,5.6,22.31,22.31,0,0,1-9.08,1.91,17.4,17.4,0,0,1-6.56-1.21,13.73,13.73,0,0,1-5.19-3.59,16.17,16.17,0,0,1-3.41-6,26.82,26.82,0,0,1-1.18-8.36c0-.94,0-1.9.06-2.85a30.2,30.2,0,0,1,.37-3h-.35a78.29,78.29,0,0,1-5.42,9.28,52.7,52.7,0,0,1-6.79,8.17,35.22,35.22,0,0,1-7.88,5.79,18.67,18.67,0,0,1-8.79,2.21,17.35,17.35,0,0,1-6.87-1.31,15.37,15.37,0,0,1-5.34-3.61,16.26,16.26,0,0,1-3.46-5.45,18.83,18.83,0,0,1-1.23-6.85,21,21,0,0,1,1.78-8.75,23.33,23.33,0,0,1,4.92-7.07,30.7,30.7,0,0,1,7.53-5.38,53.08,53.08,0,0,1,9.52-3.79,70.16,70.16,0,0,1,10.87-2.23,90.88,90.88,0,0,1,11.73-.74c.24-2.3.46-4.53.61-6.68S622.25,943,622.25,940.41ZM588.63,978a17.6,17.6,0,0,0,.49,4.08,9.89,9.89,0,0,0,1.46,3.41,7.37,7.37,0,0,0,2.58,2.32,7.64,7.64,0,0,0,3.75.85A12.21,12.21,0,0,0,602,987.5a23.1,23.1,0,0,0,5.19-3.15,34.85,34.85,0,0,0,4.86-4.86,39.55,39.55,0,0,0,4.18-6.15,42.4,42.4,0,0,0,3.1-7,35.72,35.72,0,0,0,1.62-7.57c-2.71.06-5.38.24-8,.5a57.1,57.1,0,0,0-7.57,1.29,36.87,36.87,0,0,0-6.65,2.3,19.32,19.32,0,0,0-5.28,3.52,15,15,0,0,0-3.48,5A16.53,16.53,0,0,0,588.63,978Z" transform="translate(-11.06 -0.4)"/><path class="cls-1" d="M649.64,924q3.89-1.38,7.47-2.49t6.58-2c2-.55,3.77-1,5.3-1.25a19.86,19.86,0,0,1,3.63-.43,6.44,6.44,0,0,1,5,1.88q1.77,1.88,1.77,6.48c0,.72-.07,2.29-.22,4.68s-.35,5.38-.63,9-.62,7.73-1,12.37-.85,9.56-1.36,14.77l.31.06a157.12,157.12,0,0,1,8.16-23.35,79.2,79.2,0,0,1,8.82-15.23,30.31,30.31,0,0,1,9-8.29,18.23,18.23,0,0,1,8.79-2.5,10.74,10.74,0,0,1,6.42,1.89,13.84,13.84,0,0,1,4.26,4.85,23.65,23.65,0,0,1,2.41,6.81,40,40,0,0,1,.77,7.75c0,2.29-.07,4.72-.22,7.31s-.33,5.09-.55,7.59-.44,4.88-.68,7.11-.46,4.2-.63,5.89l.33,0a156.39,156.39,0,0,1,8.18-23.65,76.4,76.4,0,0,1,8.86-15.34,30.45,30.45,0,0,1,9.06-8.3,18.19,18.19,0,0,1,8.8-2.47,12.69,12.69,0,0,1,5.29,1.14,11.91,11.91,0,0,1,4.58,3.7,19.68,19.68,0,0,1,3.22,6.54,34.42,34.42,0,0,1,1.18,9.63c0,1.05,0,2.49-.18,4.33s-.28,3.9-.48,6.17-.37,4.64-.61,7.18-.46,5-.64,7.48-.33,4.75-.46,7-.19,4.12-.19,5.74a54.21,54.21,0,0,0,.35,6.93,12.93,12.93,0,0,0,1.18,4.25,4.36,4.36,0,0,0,2.19,2.12,8.55,8.55,0,0,0,3.34.57,23.58,23.58,0,0,0,5.91-.79,37.22,37.22,0,0,0,6.17-2.21l1,2.85a33.72,33.72,0,0,1-5,3.21,67.16,67.16,0,0,1-6.33,3,49.53,49.53,0,0,1-6.59,2.21,23.26,23.26,0,0,1-5.79.86,6.64,6.64,0,0,1-4.67-1.58,10,10,0,0,1-2.53-4.33,28.71,28.71,0,0,1-1.1-6.39c-.15-2.45-.24-5.08-.24-7.88,0-3.41.11-7,.35-10.68s.5-7.26.81-10.61.55-6.39.79-9.11.35-4.77.35-6.14c0-4-.7-7-2.1-9a6.66,6.66,0,0,0-5.74-3c-1.83,0-3.83.89-5.93,2.67a35.4,35.4,0,0,0-6.28,7.31,76.43,76.43,0,0,0-6.08,11A116.48,116.48,0,0,0,728.8,965a138.92,138.92,0,0,0-4,15.45,115.65,115.65,0,0,0-2.11,16.17l-11.44,1.42-.88-.06q.6-11.49,1.12-20.36t.94-15.47l.66-11.22c.15-3.07.24-5.58.24-7.6,0-4.09-.7-7.15-2.1-9.25a6.32,6.32,0,0,0-5.39-3.11,9.9,9.9,0,0,0-6.1,2.6,32.91,32.91,0,0,0-6.33,7.2,76.72,76.72,0,0,0-6,10.86,124.93,124.93,0,0,0-5.19,13.52,138.24,138.24,0,0,0-3.89,15.32,123.14,123.14,0,0,0-2,16.15l-11.44,1.42L664,998c.29-3.46.57-7.23.81-11.32s.5-8.23.72-12.45.42-8.38.57-12.52.31-8,.44-11.59.22-6.83.28-9.68.09-5.07.09-6.71a18.39,18.39,0,0,0-.35-3.79,6.18,6.18,0,0,0-1-2.43,3.94,3.94,0,0,0-1.71-1.29,7.64,7.64,0,0,0-2.47-.37,24,24,0,0,0-4.71.54c-1.82.38-3.89.86-6.24,1.49Z" transform="translate(-11.06 -0.4)"/><path class="cls-1" d="M794.84,965.18A54.71,54.71,0,0,1,796,954a56.88,56.88,0,0,1,3.37-11,52.7,52.7,0,0,1,5.56-10,40.55,40.55,0,0,1,7.64-8.19,34.79,34.79,0,0,1,9.62-5.53,32.35,32.35,0,0,1,11.54-2,25.32,25.32,0,0,1,12.4,3,28.17,28.17,0,0,1,9,7.79,34.92,34.92,0,0,1,5.56,11,42.55,42.55,0,0,1,1.88,12.62,56.24,56.24,0,0,1-1.14,11.23,57,57,0,0,1-3.41,11,53.41,53.41,0,0,1-5.58,10,40.49,40.49,0,0,1-7.64,8.18,34.32,34.32,0,0,1-9.63,5.52,31.94,31.94,0,0,1-11.55,2,25.36,25.36,0,0,1-12.39-3,28.17,28.17,0,0,1-9-7.79,35.85,35.85,0,0,1-5.54-11A43.31,43.31,0,0,1,794.84,965.18ZM807.9,960a50,50,0,0,0,.59,7.54,41.83,41.83,0,0,0,1.78,7.4,38.3,38.3,0,0,0,3,6.63,23.75,23.75,0,0,0,4.23,5.41,18.58,18.58,0,0,0,5.47,3.59,16.67,16.67,0,0,0,6.69,1.31,14,14,0,0,0,7-1.71,17.62,17.62,0,0,0,5.25-4.57,26.36,26.36,0,0,0,3.68-6.5,52.87,52.87,0,0,0,2.32-7.59,61,61,0,0,0,1.22-7.73c.24-2.56.35-4.92.35-7.07a48.51,48.51,0,0,0-.57-7.57,40,40,0,0,0-1.77-7.33,37.59,37.59,0,0,0-3-6.63,22.74,22.74,0,0,0-4.22-5.36,18.78,18.78,0,0,0-5.47-3.59,16.55,16.55,0,0,0-6.7-1.31,14.09,14.09,0,0,0-7,1.7,17,17,0,0,0-5.25,4.55,25.36,25.36,0,0,0-3.68,6.5,53.54,53.54,0,0,0-2.32,7.55,59.67,59.67,0,0,0-1.22,7.75C808,955.53,807.9,957.87,807.9,960Z" transform="translate(-11.06 -0.4)"/><path class="cls-1" d="M883.2,998.07l-.87-.06c.28-3.46.57-7.23.81-11.32s.5-8.23.72-12.45.42-8.38.57-12.52.31-8,.44-11.59.22-6.83.28-9.68.09-5.07.09-6.71a31.8,31.8,0,0,0-.18-3.51,6.2,6.2,0,0,0-.74-2.47,3.3,3.3,0,0,0-1.66-1.44,7.71,7.71,0,0,0-3-.46,18,18,0,0,0-1.9.11c-.66.06-1.4.17-2.19.32s-1.71.33-2.71.57l-3.48.86-.81-3.94a142.53,142.53,0,0,1,14.7-4.62,40.43,40.43,0,0,1,7.62-1.33c2.41,0,4.11.7,5.16,2.1s1.56,3.48,1.56,6.26c0,.26,0,1-.11,2.23s-.18,2.86-.31,4.86-.28,4.28-.46,6.91-.39,5.45-.63,8.45-.51,6.15-.79,9.41-.61,6.52-.92,9.76l.53.06a203.06,203.06,0,0,1,5.95-20,88.93,88.93,0,0,1,7.44-16.1A39.67,39.67,0,0,1,917.43,921a17.15,17.15,0,0,1,10.85-3.92,11.13,11.13,0,0,1,3.88.66,9.35,9.35,0,0,1,3.13,1.84,8.72,8.72,0,0,1,2.07,2.78,8.12,8.12,0,0,1,.77,3.54,10.93,10.93,0,0,1-1.07,4.73,11.07,11.07,0,0,1-3.37,4h-.44a17.34,17.34,0,0,0-4.33-2.78,11.26,11.26,0,0,0-4.36-.86,12.77,12.77,0,0,0-4.75.94,13.6,13.6,0,0,0-4.22,2.7,30.83,30.83,0,0,0-5.8,7.5,79.91,79.91,0,0,0-4.9,10.37q-2.21,5.69-4,12t-3.07,12.21c-.85,4-1.55,7.68-2.07,11.16s-.9,6.42-1.12,8.78Z" transform="translate(-11.06 -0.4)"/><path class="cls-2" d="M457.35.4V258.49H437q-9.9-74.3-35.77-118.32a168.8,168.8,0,0,0-31.64-39.62A211.55,211.55,0,0,0,281,51.3a189.64,189.64,0,0,0-50.35-6.88,141.48,141.48,0,0,0-94.38,35.22,116.12,116.12,0,0,0-27.79,36.59,97.58,97.58,0,0,0-9.9,42.65q0,30.84,14.3,53.66t39.35,42.1q25,19.26,58.88,37.42t73.47,39.07q44.57,23.67,84.74,46.22T440,427.15a217.12,217.12,0,0,1,48.7,62.19q18.16,34.95,18.16,83.92a188,188,0,0,1-17.34,79.52,203.69,203.69,0,0,1-48.42,66q-31.1,28.37-74.29,45.13T271.9,780.72q-19.27,0-33-.55a240.66,240.66,0,0,1-26.41-2.47,185.78,185.78,0,0,1-26.14-6.06q-13.5-4.12-32.19-11.28-13.21-5-27-9.08t-25.31-6.88Q90.3,741.66,82.32,740a69.45,69.45,0,0,0-10.18-1.65q-13.76,0-21.74,8.25T38.57,780.72H18.21V524.83H38.57Q45.71,565,55.36,595t21.73,50.35a162.21,162.21,0,0,0,31.37,36.87,210.52,210.52,0,0,0,43.2,29.44A238.84,238.84,0,0,0,260.34,737.8q34.68,0,62.19-9.91T369.3,701.2a114.52,114.52,0,0,0,29.44-39.07,110.63,110.63,0,0,0,10.19-46.5q0-35.76-14.86-60.26t-39.9-43.74q-25.05-19.26-58.33-36.87t-70.16-39.63q-41.84-24.76-80.62-47.05t-68.52-49a216.16,216.16,0,0,1-47.6-60.81Q11,244.19,11.06,196.85a177.81,177.81,0,0,1,16.51-75.39A197.15,197.15,0,0,1,73.24,58.73q29.16-27,69.06-42.65T229.53.4q58.32,0,126,29.16Q385.27,43.33,399,43.32q14.3,0,23.39-8.53T437,.4Z" transform="translate(-11.06 -0.4)"/><path class="cls-2" d="M563,.4q5.5,25.88,14.58,34.39T601,43.32q13.77,0,43.47-13.76Q712.15.4,770.47.4q47.34,0,87.23,15.68t69.06,42.65a197.15,197.15,0,0,1,45.67,62.73,177.81,177.81,0,0,1,16.51,75.39q0,47.34-17.88,81.45a216.16,216.16,0,0,1-47.6,60.81q-29.72,26.7-68.52,49t-80.62,47.05q-36.86,22-70.16,39.63t-58.33,36.87q-25,19.27-39.9,43.74t-14.86,60.26a110.63,110.63,0,0,0,10.19,46.5A114.52,114.52,0,0,0,630.7,701.2Q650,718,677.47,727.89t62.19,9.91a238.84,238.84,0,0,0,108.68-26.14,210.52,210.52,0,0,0,43.2-29.44,162.21,162.21,0,0,0,31.37-36.87Q935,625,944.64,595t16.79-70.17h20.36V780.72H961.43q-3.84-25.86-11.83-34.12t-21.74-8.25A69.45,69.45,0,0,0,917.68,740q-8,1.65-19.54,4.4t-25.31,6.88q-13.74,4.13-27,9.08-18.69,7.14-32.19,11.28a185.78,185.78,0,0,1-26.14,6.06,240.66,240.66,0,0,1-26.41,2.47q-13.74.54-33,.55-51.72,0-94.93-16.78t-74.29-45.13a203.69,203.69,0,0,1-48.42-66,188,188,0,0,1-17.34-79.52q0-49,18.16-83.92A217.12,217.12,0,0,1,560,427.15q30.54-27.24,70.72-49.8t84.74-46.22q39.63-20.91,73.47-39.07t58.88-37.42q25.05-19.26,39.35-42.1t14.3-53.66a97.58,97.58,0,0,0-9.9-42.65,116.12,116.12,0,0,0-27.79-36.59,141.48,141.48,0,0,0-94.38-35.22A189.64,189.64,0,0,0,719,51.3a211.55,211.55,0,0,0-88.6,49.25,168.8,168.8,0,0,0-31.64,39.62q-25.86,44-35.77,118.32H542.65V.4Z" transform="translate(-11.06 -0.4)"/></svg>